<svg width="45" height="45" viewBox="0 0 45 45" fill="none" xmlns="http://www.w3.org/2000/svg">
<path d="M4.68747 7.5H40.3124C42.9013 7.5 44.9999 9.59865 44.9999 12.1875V32.8125C44.9999 35.4013 42.9013 37.5 40.3124 37.5H4.68747C2.09865 37.5 0 35.4014 0 32.8125V12.1876C0 9.59865 2.09865 7.5 4.68747 7.5Z" fill="#2196F3"/>
<path d="M45 13.125H0V20.625H45V13.125Z" fill="#455A64"/>
<path d="M14.0625 28.1251H6.56253C6.04477 28.1251 5.625 27.7053 5.625 27.1875C5.625 26.6698 6.04477 26.25 6.56253 26.25H14.0625C14.5803 26.25 15 26.6698 15 27.1875C15 27.7053 14.5803 28.1251 14.0625 28.1251Z" fill="#FAFAFA"/>
<path d="M19.6875 31.8751H6.56253C6.04477 31.8751 5.625 31.4553 5.625 30.9375C5.625 30.4198 6.04477 30 6.56253 30H19.6875C20.2053 30 20.625 30.4198 20.625 30.9375C20.625 31.4553 20.2053 31.8751 19.6875 31.8751Z" fill="#FAFAFA"/>
</svg>
